<svg xmlns="http://www.w3.org/2000/svg" viewBox="0 0 122.78 193.83"><title>Asset 6backleft</title><g id="Layer_2" data-name="Layer 2"><g id="svg8"><g id="layer7"><path id="path4747-6" d="M109.22,26.67c-6.55,18.46-3.34,49-15,69.74-9,15.89-27.36,38.69-20.84,58.25,2.65,8,12.73,12.46,21,13.84,9.7,1.63,15.59,3.3,21.23,8.4,3.34,3,9.71,9.2,6.2,12-8.79,7.08-27.51,4.84-42.62,3.32-9-.9-15.57-10.13-20.69-17.46-6.13-8.77-11.89-16-15.13-25.22C35,125.94,40.78,99,33.26,75.12,26.15,52.53,12.23,34.77.71,12-4.83,1,23.37-.22,35.68,0,57.09.46,75.19,16.7,95.58,23.21c4.47,1.43,15-.44,13.64,3.46Z"/></g></g></g></svg>