<svg xmlns="http://www.w3.org/2000/svg" viewBox="0 0 242.33 197.56"><defs><style>.cls-1{fill:#ccc;}.cls-2{fill:#1a1a1a;}</style></defs><title>Asset 2frontbear</title><g id="Layer_2" data-name="Layer 2"><g id="svg8"><g id="layer3"><g id="g4706"><path id="path4557-5" class="cls-1" d="M5.59,75.63s21.9-63.4,48.64-63.81,45-5.38,63.42-9.62c30.13-6.94,56.4,15.58,88.66,27.29,15,5.46,24.38,22.67,29.52,37.81,7.9,23.25,9.63,51.35-.61,73.67-6.95,15.15-22.85,25.2-37.62,32.92-27.55,14.41-59.42,23.86-90.48,22.61-18.21-.73-36.51-7.55-51.82-17.45C32.53,164.31,0,119.34,0,119.34Q2.79,97.48,5.59,75.63Z"/><path id="path4694" class="cls-2" d="M188.87,178.75c-66.06,40.43-56.67,1.75-78.24,10.55-16.46,6.71-30,4.54-50.54-7C57.65,181,51.83,171,50.74,168.87c-3.18-6.23,10.89-50.81,20.2-77.36,8.85-25.27,13.2-65.84,10.67-82,0,0,13.86-2.85,20.32-4.6C108.63,3.1,119.52,0,127.38,0,140.9,0,153.81,3.72,164,7.51c4.78,1.77,15.27,7.05,18.73,11,5.93,6.83-5.32,34.65-4.73,49.87,1,25.71,6.43,39.67,13.07,59.65,5.84,17.6,16.23,37,14.71,41.23-1.72,4.86-10.7,5.64-16.93,9.46Z"/></g></g></g></g></svg>