<svg xmlns="http://www.w3.org/2000/svg" viewBox="0 0 138.51 111.81"><defs><style>.cls-1{fill:#ccc;}.cls-2{fill:#1a1a1a;}</style></defs><title>Asset 3headbear</title><g id="Layer_2" data-name="Layer 2"><g id="svg8"><g id="layer4"><g id="g4827"><g id="g4682"><ellipse id="path4660" class="cls-1" cx="64.31" cy="51.82" rx="36.55" ry="45.15" transform="translate(-15.96 32.39) rotate(-25.26)"/><g id="g4674"><path id="path4662" class="cls-1" d="M127.6,82.81c-1.82,14.5-18.28,20.59-37.37,13.83s-34.09-24-34.06-39.1S71.24,34.7,90.33,40s35.51,21.82,37.28,37.46"/><path id="path4664" class="cls-1" d="M94,97.26c-3.07,2.51-10,5.25-11.1,5.58-1.82.53-3.67-.87-5.42-1.73-3.78-1.86-11.14-5.94-11.14-5.94L47.16,77.73,68.85,56.44l25.37,25s3.87,12.46-.21,15.8Z"/><path id="path4666" class="cls-1" d="M110.27,50.62c1.48-3.88-.42-8.54-2.32-12.23-2-3.92-5.88-6.63-9.2-9.55-4.06-3.57-8-7.56-13-9.67C75.07,14.66,63.06,14,51.52,13.53c-6.11-.27-12.4-.24-18.3,1.38-10.85,3-25.48,4.77-30.25,15-8.92,19,4.08,43.21,14.72,61.34,4,6.82,13.84,14.72,17.43,16.09,9.16,3.49,19.52,7.09,28.57,1.91,6.89-3.93,14.9-7,18.66-13.74C88.63,84.25,76.73,66.38,85.56,57c4.64-4.92,13.87-.21,20.11-2.85,1.79-.75,3.92-1.74,4.6-3.55Z"/><path id="path4668" class="cls-1" d="M121.43,60.65c5,.06,7.68,6.38,12,8.77,1.38.75,3.43.47,4.39,1.71s.69,2.91.49,4.36c-.24,1.65-1.61,3-1.92,4.61-.71,3.73,1.35,11.2.2,11.4a2.56,2.56,0,0,0-2.38,2.29c0,2.54.91,4.95-.65,6.45-4.25,4.08-11.76,1.27-17.65,1-6.19-.26-12.66-.57-18.39-2.63C87.1,94.88,70.9,88,72.2,77c1-8.67,15.25-8.6,23.33-11.91,7.34-3,16.82-12.54,22.68-7.2a21.61,21.61,0,0,0,2.29,2l.93.71Z"/></g></g><path id="path4744" class="cls-2" d="M93.65,37.06c-1.22-2.07-3.67-3.34-6-4-4.07-1.24-9.16-2.21-12.76.06-2.39,1.5-3.34,4.82-3.69,7.62a16.75,16.75,0,0,0,1.86,9.1,12,12,0,0,0,3.86,4.68,17,17,0,0,0,7.75,2.62c2.69.29,6,.91,8.06-.91,2.19-2,1.68-5.71,1.86-8.65.21-3.5.83-7.46-1-10.48Z"/><path id="path4736" class="cls-2" d="M136.42,80.1c1.57-.56,1.68-3,1.92-4.61.2-1.45.4-3.2-.49-4.36a5.26,5.26,0,0,0-4.39-1.71c-1.75.13-4.07.93-4.55,2.62-.59,2.06,1.53,4.15,3.05,5.67,1.19,1.19,2.87,3,4.46,2.39Z"/><path id="path4740" class="cls-2" d="M28.13,33c-3.4-1.17-2.77-6.69-3.55-10.2-.88-3.94-2.13-8.1-1.25-12A11.42,11.42,0,0,1,27.5,3.89c4.47-3,11.32-5.42,16-2.69C46.71,3.09,47.29,8,47.27,11.76a19.61,19.61,0,0,1-4.4,11.78c-3.66,4.56-9.21,11.4-14.74,9.5Z"/><path id="path4742" class="cls-2" d="M107.41,38.34c-1.43.07-1.53,2.49-1.74,3.9-.38,2.44-1.22,6,.85,7.38,1.1.73,3.53,1.07,3.81.44,1-2.15.51-4.83-.26-7.06-.56-1.61-.88-4.75-2.66-4.66Z"/><path id="path4752" class="cls-2" d="M136.72,88.82c-2.37-.73-4.54-.32-6.82-.29-3.59.06-9.85.41-10.75.81-.47.21-1.56,1.62-1.28,2.22.46,1,6.23.27,9.34.41,2.3.1,4.6.17,6.89.32,3.6.23,3.05-.65,3.17-1.41s-.24-2-.55-2.06Z"/></g></g></g></g></svg>