<svg xmlns="http://www.w3.org/2000/svg" viewBox="0 0 148.81 216.57"><title>Asset 4frontleft</title><g id="Layer_2" data-name="Layer 2"><g id="svg8"><g id="layer8"><path id="path4733-9" d="M0,55.71c5.33,24.45,6.4,50.15,16,73.34,23.55,26.43,46.6,50.36,69.4,76.55,5.93,6.74,16.32,10.5,27.3,11,11.35-.51,22.49-.27,33.33-3.66,5.44-1.95,2.38-8.39-4.43-13.09-6.48-4-11-4.88-20.79-6.1-6.7.06-8.31-.08-14.76,1.23-10.64-27.78-16.41-58.56-31.93-83.34,8.37-20.27,9-41.79,13.5-62.68L67.49,0,12.81,28.1Z"/></g></g></g></svg>