<svg xmlns="http://www.w3.org/2000/svg" viewBox="0 0 349.58 178.03"><defs><style>.cls-1{fill:#ccc;}.cls-2{fill:#1a1a1a;}</style></defs><title>Asset 1backbear</title><g id="Layer_2" data-name="Layer 2"><g id="svg8"><g id="layer2"><g id="g4720"><path id="path4557" class="cls-1" d="M13.26,50.68c25.48-28.37,69.36-33.07,106.45-42C146.24,2.34,174.05-1.94,201.19.89c38.58,4,77.72,14.9,111.05,34.72,14.9,8.86,37.34,36.2,37.34,36.2s-27.25,52-49,70.72A140.28,140.28,0,0,1,238,173.32c-44.86,9.13-91.54-3.51-137.13-7.63-25.11-2.27-54.84,5.67-75.05-9.41C8.81,143.6,1.77,119.18.23,98-1,81.7,2.32,62.86,13.26,50.68Z"/><path id="path4708" class="cls-2" d="M47.37,165.56c-11.58-6.73,17.83-21.8,30.49-26.16,19.9-6.84,43.42-4.64,63.06,2.92,17,6.55,60.19,31.84,42.2,34.74-22.12,3.56-45.25-3.7-67.86-5.61S58.69,172.14,47.37,165.56Z"/></g></g></g></g></svg>