<?xml version="1.0" encoding="UTF-8" standalone="no"?>
<!-- Created with Inkscape (http://www.inkscape.org/) -->

<svg
   xmlns:osb="http://www.openswatchbook.org/uri/2009/osb"
   xmlns:dc="http://purl.org/dc/elements/1.1/"
   xmlns:cc="http://creativecommons.org/ns#"
   xmlns:rdf="http://www.w3.org/1999/02/22-rdf-syntax-ns#"
   xmlns:svg="http://www.w3.org/2000/svg"
   xmlns="http://www.w3.org/2000/svg"
   xmlns:sodipodi="http://sodipodi.sourceforge.net/DTD/sodipodi-0.dtd"
   xmlns:inkscape="http://www.inkscape.org/namespaces/inkscape"
   width="210mm"
   height="297mm"
   viewBox="0 0 210 297"
   version="1.1"
   id="svg8"
   inkscape:version="0.92.4 (5da689c313, 2019-01-14)"
   sodipodi:docname="sneglehuset.svg">
  <defs
     id="defs2">
    <inkscape:perspective
       id="perspective4539"
       inkscape:persp3d-origin="254 : 95.250004 : 1"
       inkscape:vp_z="507.99998 : 142.875 : 1"
       inkscape:vp_y="0 : 1000 : 0"
       inkscape:vp_x="0 : 142.875 : 1"
       sodipodi:type="inkscape:persp3d" />
    <linearGradient
       osb:paint="solid"
       id="linearGradient4530">
      <stop
         id="stop4528"
         offset="0"
         style="stop-color:#000000;stop-opacity:1;" />
    </linearGradient>
    <inkscape:perspective
       sodipodi:type="inkscape:persp3d"
       inkscape:vp_x="0 : 142.875 : 1"
       inkscape:vp_y="0 : 1000 : 0"
       inkscape:vp_z="507.99998 : 142.875 : 1"
       inkscape:persp3d-origin="254 : 95.250004 : 1"
       id="perspective4539-2" />
  </defs>
  <sodipodi:namedview
     id="base"
     pagecolor="#ffffff"
     bordercolor="#666666"
     borderopacity="1.0"
     inkscape:pageopacity="0.0"
     inkscape:pageshadow="2"
     inkscape:zoom="0.70710678"
     inkscape:cx="-1311.8658"
     inkscape:cy="1214.6188"
     inkscape:document-units="mm"
     inkscape:current-layer="layer1"
     showgrid="false"
     inkscape:pagecheckerboard="true"
     inkscape:snap-others="false"
     inkscape:snap-nodes="false"
     inkscape:snap-global="false"
     inkscape:window-width="1920"
     inkscape:window-height="1017"
     inkscape:window-x="-8"
     inkscape:window-y="-8"
     inkscape:window-maximized="1" />
  <metadata
     id="metadata5">
    <rdf:RDF>
      <cc:Work
         rdf:about="">
        <dc:format>image/svg+xml</dc:format>
        <dc:type
           rdf:resource="http://purl.org/dc/dcmitype/StillImage" />
        <dc:title></dc:title>
      </cc:Work>
    </rdf:RDF>
  </metadata>
  <g
     inkscape:label="OGBjørn"
     inkscape:groupmode="layer"
     id="layer1">
    <g
       id="layer7-5"
       inkscape:label="backleg2"
       transform="translate(-349.95864,-20.147296)" />
    <g
       id="layer6-2"
       inkscape:label="BackLeg"
       style="display:inline"
       transform="translate(-349.95864,-160.37646)" />
    <path
       style="fill:#71655d;fill-opacity:1;stroke:#000000;stroke-width:0;stroke-linecap:butt;stroke-linejoin:miter;stroke-miterlimit:4;stroke-dasharray:none;stroke-opacity:1"
       d="m -283.10689,-52.207507 c -0.30109,-1.173522 -0.85278,-4.676833 -0.85545,-4.744403 -0.0615,-1.559642 -1.23141,-3.364696 -3.88598,-2.538616 -17.37211,5.406063 -41.68389,2.868539 -50.82107,18.395518 -6.75063,11.471462 -6.03847,44.2902802 6.35,39.4229172 18.77013,-7.374684 35.45178,1.924872 57.9164,-2.367295 3.74259,-0.715073 -3.2383,-26.8654152 -8.7039,-48.1681212 z"
       id="path1076"
       inkscape:connector-curvature="0"
       sodipodi:nodetypes="sssasss"
       inkscape:export-xdpi="96"
       inkscape:export-ydpi="96"
       inkscape:export-filename="C:\Users\Duere\Desktop\PandaSnegle.png" />
    <path
       style="fill:#7f7269;fill-opacity:1;stroke:#000000;stroke-width:0;stroke-linecap:butt;stroke-linejoin:miter;stroke-miterlimit:4;stroke-dasharray:none;stroke-opacity:1"
       d="m -310.88814,-44.534591 c 0.66575,-5.847509 5.87436,-10.783707 5.82083,-16.668749 -0.10177,-11.189115 0.44168,-24.940475 -11.64167,-31.485416 -18.85467,-10.212624 -48.72665,-11.157974 -64.29375,-2.11667 -16.32935,9.484013 -36.7663,28.55452 -31.48541,47.095836 2.58332,9.0701 14.03548,32.601609 27.25208,42.8624992 12.82502,9.956882 30.3593,15.2580278 46.56667,14.2875 12.33674,-0.738747 25.14449,-8.213674 32.27916,-12.964583 0,0 -6.05356,-27.3465752 -4.49791,-41.0104172 z"
       id="path1078"
       inkscape:connector-curvature="0"
       sodipodi:nodetypes="aassssssa"
       inkscape:export-xdpi="96"
       inkscape:export-ydpi="96"
       inkscape:export-filename="C:\Users\Duere\Desktop\PandaSnegle.png" />
    <path
       style="opacity:0;fill:#ac9d93;fill-opacity:1;stroke-width:0;stroke-miterlimit:4;stroke-dasharray:none"
       id="path1080"
       d="m -275.47515,6.7998056 c 0.52883,-0.4691 1.03301,-0.986045 1.41123,-1.586198 0.30722,-0.446518 0.46027,-0.927976 0.53766,-1.458518 0.0595,-0.536454 0.0565,-1.077124 0.0568,-1.616092 0.0225,-0.507176 -0.0735,-1.005686 -0.24334,-1.48093901 -0.15417,-0.342184 -0.42401,-0.595778 -0.663,-0.875359 -0.27319,-0.234215 -0.48078,-0.537912 -0.79822,-0.715624 -0.21249,-0.05619 -0.5254,-0.20868499 -0.74317,-0.08745 -0.0626,0.03485 -0.21664,0.18456999 -0.15375,0.15022599 1.062,-0.57999799 2.10516,-1.19387099 3.15774,-1.79080699 -0.41464,0.333162 -0.74651,0.75643 -1.09475,1.155824 -0.31299,0.331705 -0.5764,0.70149699 -0.85217,1.06311299 -0.30096,0.431024 -0.35005,0.961101 -0.39092,1.47032001 -0.0446,0.459447 -0.0144,0.916822 0.13888,1.353656 0.18738,0.452346 0.54345,0.781625 0.92985,1.066735 0.39474,0.275775 0.77575,0.572273 1.23894,0.720195 0.37777,0.203591 0.79061,0.304474 1.18851,0.458631 0.25934,0.07576 0.1274,0.04293 0.39593,0.09803 0,0 -3.23743,2.233204 -3.23743,2.233204 v 0 c -0.28961,-0.0842 -0.14789,-0.03813 -0.42537,-0.137604 -0.39536,-0.153466 -0.80732,-0.261565 -1.18461,-0.460938 -0.46968,-0.21018 -0.88394,-0.517427 -1.2987,-0.819072 -0.4268,-0.350455 -0.8192,-0.737179 -1.04751,-1.250205 -0.18362,-0.480143 -0.24823,-0.992148 -0.20598,-1.504681 0.03,-0.563394 0.0759,-1.133288 0.29207,-1.661224 0.24927,-0.38302401 0.52134,-0.76530101 0.84577,-1.08856701 0.32819,-0.437825 0.72522,-0.816404 1.05728,-1.25137399 1.52724,-0.895129 2.98316,-2.803664 4.70458,-1.842305 0.31548,0.234912 0.57491,0.530492 0.85464,0.805698 0.2769,0.311631 0.55642,0.620305 0.73079,1.005119 0.18533,0.51437799 0.30915,1.05297199 0.30074,1.60341599 0.001,0.553404 0.005,1.10769701 -0.037,1.65991401 -0.0566,0.56293 -0.12842,1.130112 -0.4773,1.596797 -0.32561,0.664137 -0.84559,1.17919 -1.34552,1.715819 0,0 -3.64259,1.470262 -3.64259,1.470262 z"
       inkscape:connector-curvature="0"
       inkscape:export-xdpi="96"
       inkscape:export-ydpi="96"
       inkscape:export-filename="C:\Users\Duere\Desktop\PandaSnegle.png" />
    <path
       style="opacity:0;fill:#6c5d53;fill-opacity:1;stroke-width:0;stroke-miterlimit:4;stroke-dasharray:none"
       id="path1082"
       d="m -272.01661,5.5467136 c 0.75331,-0.0185 1.46103,-0.196755 2.15574,-0.47081 -0.24962,0.04968 0.91623,-0.526469 0.62763,-0.35854 -5.47875,3.1879922 -4.01672,2.315072 -2.86035,1.623361 0.31138,-0.215269 0.57582,-0.483459 0.85204,-0.739742 0.24878,-0.339967 0.53846,-0.652535 0.73626,-1.025974 0.12763,-0.442843 0.40133,-0.813389 0.56208,-1.242225 0.14399,-0.512803 0.18647,-1.047983 0.11094,-1.574442 -0.0397,-0.186626 -0.12635,-0.91747701 -0.44125,-0.729941 0,0 3.2372,-2.256957 3.2372,-2.256957 v 0 c 0.42893,0.24472899 0.60519,0.67178099 0.67571,1.14879499 0.0994,0.57948 0.0729,1.15534001 -0.029,1.73507101 -0.0619,0.240821 -0.1276,0.468955 -0.24875,0.688202 -0.0686,0.12417 -0.18631,0.219114 -0.24395,0.348745 -0.0327,0.07356 -0.0341,0.157339 -0.0512,0.236009 -0.13987,0.434024 -0.40439,0.772001 -0.69453,1.117287 -0.18355,0.336682 -0.51672,0.590835 -0.81071,0.83193 -0.19829,0.197688 -0.0779,0.103027 -0.31994,0.242916 -1.26722,0.732397 -2.74256,1.728666 -4.1913,2.3688153 -0.718,0.2394481 -1.46527,0.3203299 -2.21461,0.4049445 0,0 3.1479,-2.3474448 3.1479,-2.3474448 z"
       inkscape:connector-curvature="0"
       inkscape:export-xdpi="96"
       inkscape:export-ydpi="96"
       inkscape:export-filename="C:\Users\Duere\Desktop\PandaSnegle.png" />
    <path
       style="opacity:0;fill:#483e37;fill-opacity:1;stroke-width:0;stroke-miterlimit:4;stroke-dasharray:none"
       id="path1084"
       d="m -271.22286,8.1925467 c 0.66887,-0.1687591 1.35836,-0.3393749 1.97636,-0.6528985 0.31469,-0.075851 0.56557,-0.3020446 0.8627,-0.4107846 0.54801,-0.200551 -0.0527,0.088353 0.45074,-0.170042 0.21243,-0.128916 0.46755,-0.134995 0.69578,-0.211224 0.21023,-0.07021 0.39909,-0.172939 0.616,-0.233576 -0.13029,0.03881 0.47232,-0.258138 0.35579,-0.190821 -1.01244,0.584848 -4.06427,2.3139858 -3.05206,1.7287349 1.14843,-0.664024 7.84854,-4.5035339 0.3457,-0.2025436 0.33285,-0.2563381 0.59778,-0.5834025 0.89205,-0.8798443 0.30429,-0.29204 0.54979,-0.630772 0.80738,-0.962476 0.26329,-0.358923 0.44463,-0.759423 0.6268,-1.162353 0.14797,-0.423212 0.30951,-0.844545 0.43579,-1.275211 0.12559,-0.510144 0.1334,-1.038514 0.14389,-1.560871 0.007,-0.57193 0.003,-1.14391501 0.001,-1.71586301 -0.0149,-0.579233 0.0332,-1.161584 -0.0233,-1.73887199 -0.0545,-0.422021 -0.15757,-0.83363 -0.42284,-1.172962 -0.17161,-0.228332 -0.0805,-0.12512 -0.27032,-0.312397 0,0 3.3583,-2.047645 3.3583,-2.047645 v 0 c 0.21049,0.230814 0.1129,0.112538 0.29395,0.35385 0.29289,0.405326 0.45619,0.858538 0.51649,1.35577 0.0814,0.588787 0.0222,1.187037 0.0435,1.780175 5.3e-4,0.57475299 0.002,1.14951699 -0.003,1.72425999 -0.006,0.54599 2.7e-4,1.09572301 -0.0924,1.63574701 -0.0969,0.460768 -0.29746,0.878352 -0.41074,1.334056 -0.17587,0.427681 -0.34766,0.844152 -0.59,1.236522 -0.22911,0.351977 -0.47762,0.714521 -0.7894,0.996843 -0.25851,0.337073 -0.58016,0.626905 -0.87092,0.935145 -1.17292,0.701915 -2.43764,1.2693053 -3.51874,2.105746 -0.97409,0.7536493 2.12902,-1.2388148 3.19516,-1.855399 0.0554,-0.03201 -0.10742,0.06951 -0.16271,0.101639 -1.17717,0.6841637 -2.35349,1.3698078 -3.53457,2.0472004 -0.13389,0.07679 -0.23709,0.1032391 -0.38276,0.1521333 -0.42804,0.160102 -0.86988,0.2790592 -1.28426,0.474554 -0.44567,0.1687814 -0.86264,0.4044522 -1.30973,0.5721059 -0.66816,0.2384038 -1.34304,0.4668808 -2.0481,0.5687468 0,0 3.14791,-2.3474453 3.14791,-2.3474453 z"
       inkscape:connector-curvature="0"
       inkscape:export-xdpi="96"
       inkscape:export-ydpi="96"
       inkscape:export-filename="C:\Users\Duere\Desktop\PandaSnegle.png" />
    <path
       style="opacity:0;fill:#483e37;fill-opacity:1;stroke-width:0;stroke-miterlimit:4;stroke-dasharray:none"
       id="path1086"
       d="m -279.42495,6.0758796 c 0.78825,-0.117807 1.59956,-0.07564 2.38006,-0.2349 0.26411,-0.09199 0.55549,-0.08732 0.82262,-0.161014 0.21125,-0.05828 0.41212,-0.162744 0.62593,-0.222004 0.4026,-0.08329 0.76686,-0.283277 1.13536,-0.457491 0.44584,-0.118287 0.86173,-0.326174 1.28034,-0.517415 1.3673,-0.446615 0.39273,-0.143711 -2.98296,1.737966 -0.0655,0.03651 0.12387,-0.08462 0.18424,-0.129102 0.17634,-0.129903 0.32793,-0.284262 0.49182,-0.42896 0.32806,-0.222346 0.60925,-0.506247 0.95099,-0.707453 0.32289,-0.192695 0.60312,-0.439032 0.89321,-0.675297 0.28288,-0.272942 0.58156,-0.517955 0.77796,-0.862262 0.20994,-0.383885 0.39366,-0.783725 0.56617,-1.186104 0.16804,-0.360242 0.36857,-0.707027 0.51156,-1.078132 0.15967,-0.43641301 0.31007,-0.87548801 0.47058,-1.31181701 0.16067,-0.457616 0.19151,-0.94247499 0.21336,-1.42270199 0.022,-0.597053 0.016,-1.194719 0.0138,-1.792054 0.0206,-0.450303 -0.0752,-0.886504 -0.24056,-1.301884 -0.11196,-0.441294 -0.32868,-0.83548 -0.56827,-1.218009 -0.23585,-0.380767 -0.47567,-0.757804 -0.70397,-1.143875 -0.38327,-0.331678 -0.75645,-0.668475 -1.106,-1.036114 -0.40428,-0.409349 -0.80231,-0.790722 -1.28218,-1.108711 -0.36196,-0.285837 -0.74285,-0.575405 -1.16868,-0.7591 -0.49148,-0.1808156 -0.98022,-0.3772976 -1.48179,-0.5310156 -0.2999,-0.137276 -0.64002,-0.151926 -0.94924,-0.252521 -0.33052,-0.107532 -0.65109,-0.281019 -0.9761,-0.407112 -0.6014,-0.197649 -1.23259,-0.248732 -1.86079,-0.275037 -0.54372,-0.01463 -1.0877,-0.0091 -1.63153,-0.0067 -0.43185,0.03956 -0.93133,0.09299 -1.32977,0.278485 -3.13068,1.8707416 10.90869,-6.278348 -0.80663,0.487174 -1.04077,0.601041 2.08155,-1.202089 3.12451,-1.799317 0.0843,-0.04827 -0.1656,0.101582 -0.24839,0.152374 -0.45455,0.311356 -0.90527,0.630388 -1.32199,0.99142 -0.46453,0.387752 -0.8224,0.877181 -1.25785,1.296032 -0.40619,0.3319146 -0.73597,0.7338506 -1.08265,1.1230346 -0.37846,0.385499 -0.67535,0.832086 -0.96777,1.283323 -0.29583,0.433903 -0.57205,0.881654 -0.87201,1.312672 -0.44418,0.589017 -0.81582,1.222932 -1.19933,1.851789 -0.56079,0.93934 -1.00351,1.941216 -1.49902,2.914804 -0.35859,0.65455399 -0.7183,1.30706699 -1.03844,1.98157999 -0.37904,0.79979601 -0.68096,1.63254601 -1.02264,2.44795701 -0.30335,0.650035 -0.61571,1.292878 -0.86985,1.964295 -0.308,0.723608 -0.53588,1.471002 -0.69807,2.239601 -0.13936,0.7469753 -0.29086,1.4875705 -0.36714,2.2443645 -0.0605,0.6983369 -0.068,1.3996499 -0.0777,2.1000819 -0.0521,0.943738 0.009,1.880309 0.10549,2.818162 0.0928,0.701768 0.27566,1.385388 0.59417,2.018001 0.36872,0.737378 0.70445,1.477807 1.19018,2.146855 0.55776,0.817106 1.31664,1.454747 2.02117,2.137823 0.61117,0.689298 1.39404,1.147287 2.17721,1.607826 0.75596,0.458523 1.5771,0.794889 2.34931,1.220086 1.38658,0.792743 2.93021,1.282594 4.44976,1.754675 1.49149,0.419035 3.01832,0.696446 4.5529,0.899393 1.14652,0.211029 2.30116,0.353475 3.46471,0.417642 1.30479,0.228495 2.61664,0.394299 3.93745,0.491017 0.97649,0.06868 1.95562,0.06483 2.93377,0.08036 1.10789,0.0071 2.21579,-0.0016 3.32366,-0.0081 0.9192,-0.0099 1.83826,3.17e-4 2.75743,0.0056 1.05873,-7.67e-4 2.11745,-0.0023 3.17616,-0.0082 0.62201,-0.0093 1.2434,0.02307 1.86213,-0.04655 0,0 -3.14022,2.320753 -3.14022,2.320753 v 0 c -0.62459,0.03274 -1.24974,0.01777 -1.87508,0.01671 -1.05121,-0.0059 -2.10242,-0.0075 -3.15364,-0.0081 -0.92545,0.0054 -1.8508,0.01603 -2.7763,0.0087 -1.10326,-0.0035 -2.20653,-0.0073 -3.30981,-0.0049 -0.98304,0.0061 -1.96651,-0.01975 -2.94608,-0.108469 -1.32029,-0.120799 -2.62856,-0.319452 -3.94419,-0.476955 -1.15959,-0.08171 -2.30632,-0.255107 -3.44953,-0.465023 -1.54234,-0.23065 -3.09216,-0.486301 -4.58129,-0.95933 -1.53972,-0.509902 -3.1034,-1.019462 -4.54067,-1.776608 -0.79008,-0.403968 -1.59764,-0.775835 -2.35874,-1.235149 -0.80499,-0.4786 -1.59099,-0.984312 -2.22377,-1.687345 -0.71937,-0.69924 -1.48008,-1.362372 -2.04642,-2.200757 -0.49781,-0.685661 -0.88405,-1.420785 -1.25116,-2.183428 -0.34306,-0.675504 -0.54128,-1.402617 -0.64627,-2.152684 -0.0959,-0.948793 -0.16126,-1.894838 -0.13608,-2.849602 -0.003,-0.711906 0.009,-1.424113 0.0688,-2.13399 0.0672,-0.770119 0.18568,-1.526149 0.34795,-2.2812296 0.15219,-0.7801155 0.3374,-1.5598315 0.66546,-2.2872588 0.23672,-0.68869 0.53575,-1.345583 0.86524,-1.994211 0.38224,-0.799967 0.64838,-1.654616 1.03208,-2.455769 0.30261,-0.687581 0.62955,-1.36106301 1.02018,-2.00322501 0.55166,-0.948286 0.9755,-1.96824499 1.49125,-2.93638499 0.39208,-0.615313 0.7121,-1.27492 1.1652,-1.84901 0.28083,-0.443125 0.58086,-0.876233 0.88773,-1.3028 0.2735,-0.477849 0.57113,-0.939343 0.92868,-1.353982 0.36947,-0.376228 0.65188,-0.829599 1.08503,-1.141358 0.96182,-0.971515 -0.54313,0.535184 0.46472,-0.428031 0.28607,-0.273385 0.47313,-0.631111 0.76679,-0.899271 0.44521,-0.3343146 0.84817,-0.7237356 1.31733,-1.0295226 1.34935,-0.960843 0.37793,-0.280443 3.83154,-2.246265 1.04994,-0.597638 -4.18605,2.414445 -3.13629,1.816491 0.95512,-0.544041 2.60305,-1.728329 3.9964,-2.248127 0.4614,-0.09098 0.92027,-0.208584 1.39514,-0.176255 0.54753,-0.0011 1.09562,-0.0039 1.6424,0.02949 0.6553,0.05143 1.3098,0.142481 1.92686,0.38141 0.62888,0.25767 1.26533,0.46427 1.92413,0.633275 0.50844,0.182957 1.02262,0.353975 1.51651,0.573183 0.4196,0.232248 0.81269,0.511585 1.18878,0.808556 0.49279,0.3386 0.8942,0.763151 1.31987,1.180089 0.37952,0.3809706 0.80494,0.7126286 1.16868,1.1079606 0.22519,0.383189 0.45874,0.759162 0.6944,1.135557 0.25434,0.399777 0.48334,0.817578 0.60771,1.277953 0.18479,0.458223 0.31696,0.940417 0.29839,1.439827 2.2e-4,0.601005 5.3e-4,1.202015 -0.003,1.803014 -0.0137,0.510486 -0.0307,1.025719 -0.16027,1.522639 -0.13507,0.441505 -0.30882,0.87330399 -0.47102,1.30207799 -0.10183,0.412169 -0.30976,0.758685 -0.48073,1.142577 -0.23786,0.371488 -0.35901,0.81385401 -0.56078,1.20605801 -0.50479,0.821459 0.29465,-0.50732 -0.20134,0.420709 -0.11443,0.214106 -0.37046,0.356886 -0.53228,0.528972 -0.23925,0.291472 -0.55404,0.53665 -0.86789,0.740205 -0.3052,0.249985 -0.6821,0.406418 -0.95585,0.704971 -0.30613,0.172898 -0.41543,0.411043 -0.67513,0.56398 -3.3546,1.97549 -2.32383,1.502082 -3.75532,2.148561 -0.41794,0.194584 -0.86111,0.3308764 -1.28008,0.5231481 -0.37277,0.1783466 -0.77145,0.2992355 -1.16888,0.4093921 -0.47799,0.1586426 -0.96972,0.2516114 -1.46788,0.3259992 -0.79854,0.079477 -1.6025,0.1093796 -2.39641,0.2347312 0,0 3.14791,-2.3474456 3.14791,-2.3474456 z"
       inkscape:connector-curvature="0"
       inkscape:export-xdpi="96"
       inkscape:export-ydpi="96"
       inkscape:export-filename="C:\Users\Duere\Desktop\PandaSnegle.png" />
    <path
       style="fill:#483e37;fill-opacity:1;stroke:#000000;stroke-width:0;stroke-linecap:butt;stroke-linejoin:miter;stroke-miterlimit:4;stroke-dasharray:none;stroke-opacity:1"
       d="m -352.02823,-53.184535 c 3.97941,0.280624 8.0199,3.800624 9.02501,7.650828 1.35057,5.173557 -1.17375,12.022183 -5.51528,15.04663 -5.30944,3.698725 -13.53235,2.640835 -19.30351,-0.255027 -6.29707,-3.159751 -11.35282,-9.89733 -13.03613,-16.831824 -1.65033,-6.798597 -0.63424,-15.26714 3.76042,-20.657238 6.06315,-7.436533 17.12392,-9.489318 26.57365,-10.456133 7.9281,-0.811133 16.66763,-0.04364 23.56533,4.080442 8.41936,5.03387 7.78347,20.731853 8.49184,31.245664 0.66024,9.799404 -2.94516,25.111594 -12.25226,29.450914 -9.8967,4.6142172 -21.95314,5.8164332 -32.59034,3.315359 -9.28635,-2.183456 -20.70264,-5.735272 -24.3174,-15.301658 -0.42141,-1.115249 1.53536,-3.234693 2.50694,-2.550277 8.12642,5.72453 13.67722,12.757282 22.31185,15.046631 9.65025,2.558627 21.99567,3.8735542 29.83269,-2.295249 8.38746,-6.602073 11.56721,-17.131754 11.99098,-26.957228 0.45065,-10.448823 0.77495,-23.477973 -10.23612,-29.658906 -5.4232,-3.044247 -12.15291,-3.326338 -18.30072,-2.805305 -8.84849,0.749919 -19.47487,1.616716 -25.32019,8.415911 -4.25128,4.945047 -5.23063,13.050252 -3.50973,19.382101 1.48318,5.457157 6.04791,10.228589 11.03058,12.751381 5.02629,2.544875 12.09404,4.395412 16.79655,1.275139 3.56411,-2.364903 5.38796,-8.066871 4.26182,-12.241327 -0.86362,-3.201352 -4.63402,-4.078387 -7.52085,-6.37569 -0.56619,-0.45057 1.03777,-1.325707 1.75487,-1.275138 z"
       id="path1094"
       inkscape:connector-curvature="0"
       sodipodi:nodetypes="saaaaaasssassasasaaaaaass"
       inkscape:export-xdpi="96"
       inkscape:export-ydpi="96"
       inkscape:export-filename="C:\Users\Duere\Desktop\PandaSnegle.png" />
  </g>
  <g
     inkscape:groupmode="layer"
     id="layer5"
     inkscape:label="SnailBjørn">
    <path
       style="opacity:0;fill:#ac9d93;fill-opacity:1;stroke-width:0;stroke-miterlimit:4;stroke-dasharray:none"
       d="m -540.13812,38.131897 c -74.01302,-3.97125 -139.51584,-31.8727994 -189.43649,-80.692169 -24.41407,-23.875485 -41.1094,-46.96285 -55.83205,-77.208108 -6.22514,-12.78852 -9.86584,-21.74646 -14.24194,-35.04227 -14.95167,-45.42738 -18.07286,-94.62111 -8.94601,-141 8.66056,-44.0094 27.47326,-83.77029 55.71292,-117.75 6.20038,-7.46068 19.10855,-20.7181 26.74357,-27.46715 62.17384,-54.9592 149.44269,-75.83359 230.06279,-55.03019 16.30617,4.20768 29.51414,9.14723 45.43721,16.99271 18.02442,8.88084 31.7787,17.78993 46.75,30.28147 6.27627,5.23671 18.9639,17.6639 24.73082,24.22316 42.41751,48.24545 62.48449,114.18393 54.26354,178.30564 -5.27346,41.13195 -21.97178,79.63675 -47.62832,109.82658 -8.60324,10.12335 -23.46751,24.61452 -25.25409,24.6202 -0.41958,10e-4 -0.89767,0.38071 -1.06241,0.84305 -0.37885,1.06317 -6.70801,6.05629 -13.75898,10.85455 -27.22533,18.527118 -57.29496,29.687543 -91.29056,33.882728 -9.08245,1.12081 -34.75203,1.275325 -43.25,0.260335 -42.95337,-5.13029 -79.35325,-21.62519 -108.46245,-49.150633 -44.92489,-42.48065 -64.21543,-105.92721 -50.45379,-165.94245 6.83898,-29.82516 21.40355,-55.91777 42.99558,-77.02713 11.99062,-11.72258 23.34078,-19.79749 37.92066,-26.97812 16.57897,-8.16518 31.53322,-12.60645 49.79299,-14.78805 8.75516,-1.04602 24.57633,-1.04605 33.37699,-6e-5 31.24989,3.71418 58.50619,16.68908 79.65505,37.91845 19.89897,19.97471 31.94658,44.99086 35.45727,73.62491 0.88115,7.18684 0.75483,21.25549 -0.25967,28.92051 -3.3343,25.19222 -13.90258,46.619 -31.38144,63.62467 -13.10552,12.75072 -27.52292,20.78399 -45.14119,25.15233 -14.0431,3.48189 -32.20826,3.50238 -45.38458,0.0512 -23.47447,-6.14854 -42.10993,-20.97474 -51.84663,-41.24868 -4.65217,-9.68684 -6.45222,-17.1746 -6.86336,-28.54984 -0.22997,-6.36287 -0.10956,-9.13461 0.57459,-13.22612 3.89756,-23.30911 19.40201,-40.52572 40.31085,-44.76239 5.03436,-1.02009 15.56563,-0.74221 20.20913,0.53325 10.82898,2.97446 18.99442,10.90541 21.24369,20.63362 1.05621,4.56821 -0.75216,11.55045 -4.33785,16.74866 -2.70915,3.92749 -6.87962,4.98349 -10.35827,2.62282 -2.10655,-1.42954 -2.79757,-1.55825 -2.79757,-0.52108 0,0.40091 1.02219,1.32797 2.27153,2.06013 2.97059,1.74088 6.76214,1.56669 9.38123,-0.43099 4.91338,-3.74761 8.55748,-13.87154 7.34964,-20.41856 -0.27289,-1.47923 -1.39268,-4.51388 -2.48841,-6.74368 -3.59742,-7.32069 -11.06651,-12.98616 -20.51399,-15.5603 -5.06802,-1.38087 -17.8423,-1.22185 -23.45387,0.29197 -8.93682,2.41087 -15.58317,6.42485 -22.79613,13.76744 -11.59885,11.80729 -16.82804,26.61411 -16.08829,45.55507 0.7469,19.12381 7.95869,35.41546 21.81365,49.27765 11.54407,11.5501 25.88069,19.08424 42.83535,22.5107 7.65475,1.54699 23.12702,1.91317 31.20432,0.73851 31.87692,-4.6358 58.36029,-22.88399 74.41746,-51.27686 6.15489,-10.88329 10.28469,-22.81861 12.88907,-37.25 1.41806,-7.85774 1.31173,-30.22953 -0.18425,-38.76506 -2.43785,-13.90956 -5.45559,-23.18486 -11.62644,-35.73494 -6.28278,-12.77772 -13.09757,-22.31041 -23.26087,-32.53789 -20.19254,-20.32003 -45.223,-32.9144 -75.03773,-37.75611 -8.26469,-1.34213 -27.31511,-1.8551 -36.57185,-0.98477 -67.70366,6.36555 -122.10968,56.52861 -135.87528,125.27877 -3.99948,19.97473 -4.278,42.88872 -0.77187,63.5 4.50858,26.50428 15.30149,52.33659 30.9177,74 10.28093,14.26211 25.90746,29.74166 40.74505,40.361823 25.6988,18.394185 55.04875,29.535385 88.84398,33.725045 10.17788,1.26177 34.70358,1.2575 45,-0.0079 37.93634,-4.66203 71.66277,-18.17757 100.81183,-40.399358 4.40639,-3.35921 5.40291,-3.92294 5.93646,-3.35826 3.15442,3.33844 62.25943,79.187273 62.07698,79.662728 -0.36967,0.96336 -13.66592,10.802635 -22.37417,16.55698 -42.23869,27.91104 -91.17878,44.902589 -142.4511,49.457839 -8.45298,0.751 -33.0799,1.32835 -40.25,0.9436 z"
       id="path900"
       inkscape:connector-curvature="0"
       transform="scale(0.26458333)" />
    <path
       style="opacity:0;fill:#ac9d93;fill-opacity:1;stroke-width:0;stroke-miterlimit:4;stroke-dasharray:none"
       d="m -540.13812,38.131897 c -74.01302,-3.97125 -139.51584,-31.8727994 -189.43649,-80.692169 -24.41407,-23.875485 -41.1094,-46.96285 -55.83205,-77.208108 -6.22514,-12.78852 -9.86584,-21.74646 -14.24194,-35.04227 -14.95167,-45.42738 -18.07286,-94.62111 -8.94601,-141 8.66056,-44.0094 27.47326,-83.77029 55.71292,-117.75 6.20038,-7.46068 19.10855,-20.7181 26.74357,-27.46715 62.17384,-54.9592 149.44269,-75.83359 230.06279,-55.03019 16.30617,4.20768 29.51414,9.14723 45.43721,16.99271 18.02442,8.88084 31.7787,17.78993 46.75,30.28147 6.27627,5.23671 18.9639,17.6639 24.73082,24.22316 42.41751,48.24545 62.48449,114.18393 54.26354,178.30564 -5.27346,41.13195 -21.97178,79.63675 -47.62832,109.82658 -8.60324,10.12335 -23.46751,24.61452 -25.25409,24.6202 -0.41958,10e-4 -0.89767,0.38071 -1.06241,0.84305 -0.37885,1.06317 -6.70801,6.05629 -13.75898,10.85455 -27.22533,18.527118 -57.29496,29.687543 -91.29056,33.882728 -9.08245,1.12081 -34.75203,1.275325 -43.25,0.260335 -42.95337,-5.13029 -79.35325,-21.62519 -108.46245,-49.150633 -44.92489,-42.48065 -64.21543,-105.92721 -50.45379,-165.94245 6.83898,-29.82516 21.40355,-55.91777 42.99558,-77.02713 11.99062,-11.72258 23.34078,-19.79749 37.92066,-26.97812 16.57897,-8.16518 31.53322,-12.60645 49.79299,-14.78805 8.75516,-1.04602 24.57633,-1.04605 33.37699,-6e-5 31.24989,3.71418 58.50619,16.68908 79.65505,37.91845 19.89897,19.97471 31.94658,44.99086 35.45727,73.62491 0.88115,7.18684 0.75483,21.25549 -0.25967,28.92051 -3.3343,25.19222 -13.90258,46.619 -31.38144,63.62467 -13.10552,12.75072 -27.52292,20.78399 -45.14119,25.15233 -14.0431,3.48189 -32.20826,3.50238 -45.38458,0.0512 -23.47447,-6.14854 -42.10993,-20.97474 -51.84663,-41.24868 -4.65217,-9.68684 -6.45222,-17.1746 -6.86336,-28.54984 -0.22997,-6.36287 -0.10956,-9.13461 0.57459,-13.22612 3.89756,-23.30911 19.40201,-40.52572 40.31085,-44.76239 5.03436,-1.02009 15.56563,-0.74221 20.20913,0.53325 10.82898,2.97446 18.99442,10.90541 21.24369,20.63362 1.05621,4.56821 -0.75216,11.55045 -4.33785,16.74866 -2.70915,3.92749 -6.87962,4.98349 -10.35827,2.62282 -2.10655,-1.42954 -2.79757,-1.55825 -2.79757,-0.52108 0,0.40091 1.02219,1.32797 2.27153,2.06013 2.97059,1.74088 6.76214,1.56669 9.38123,-0.43099 4.91338,-3.74761 8.55748,-13.87154 7.34964,-20.41856 -0.27289,-1.47923 -1.39268,-4.51388 -2.48841,-6.74368 -3.59742,-7.32069 -11.06651,-12.98616 -20.51399,-15.5603 -5.06802,-1.38087 -17.8423,-1.22185 -23.45387,0.29197 -8.93682,2.41087 -15.58317,6.42485 -22.79613,13.76744 -11.59885,11.80729 -16.82804,26.61411 -16.08829,45.55507 0.7469,19.12381 7.95869,35.41546 21.81365,49.27765 11.54407,11.5501 25.88069,19.08424 42.83535,22.5107 7.65475,1.54699 23.12702,1.91317 31.20432,0.73851 31.87692,-4.6358 58.36029,-22.88399 74.41746,-51.27686 6.15489,-10.88329 10.28469,-22.81861 12.88907,-37.25 1.41806,-7.85774 1.31173,-30.22953 -0.18425,-38.76506 -2.43785,-13.90956 -5.45559,-23.18486 -11.62644,-35.73494 -6.28278,-12.77772 -13.09757,-22.31041 -23.26087,-32.53789 -20.19254,-20.32003 -45.223,-32.9144 -75.03773,-37.75611 -8.26469,-1.34213 -27.31511,-1.8551 -36.57185,-0.98477 -67.70366,6.36555 -122.10968,56.52861 -135.87528,125.27877 -3.99948,19.97473 -4.278,42.88872 -0.77187,63.5 4.50858,26.50428 15.30149,52.33659 30.9177,74 10.28093,14.26211 25.90746,29.74166 40.74505,40.361823 25.6988,18.394185 55.04875,29.535385 88.84398,33.725045 10.17788,1.26177 34.70358,1.2575 45,-0.0079 37.93634,-4.66203 71.66277,-18.17757 100.81183,-40.399358 4.40639,-3.35921 5.40291,-3.92294 5.93646,-3.35826 3.15442,3.33844 62.25943,79.187273 62.07698,79.662728 -0.36967,0.96336 -13.66592,10.802635 -22.37417,16.55698 -42.23869,27.91104 -91.17878,44.902589 -142.4511,49.457839 -8.45298,0.751 -33.0799,1.32835 -40.25,0.9436 z"
       id="path902"
       inkscape:connector-curvature="0"
       transform="scale(0.26458333)" />
    <path
       style="opacity:0;fill:#ac9d93;fill-opacity:1;stroke-width:0;stroke-miterlimit:4;stroke-dasharray:none"
       d="m -540.13812,38.131897 c -74.01302,-3.97125 -139.51584,-31.8727994 -189.43649,-80.692169 -24.41407,-23.875485 -41.1094,-46.96285 -55.83205,-77.208108 -6.22514,-12.78852 -9.86584,-21.74646 -14.24194,-35.04227 -14.95167,-45.42738 -18.07286,-94.62111 -8.94601,-141 8.66056,-44.0094 27.47326,-83.77029 55.71292,-117.75 6.20038,-7.46068 19.10855,-20.7181 26.74357,-27.46715 62.17384,-54.9592 149.44269,-75.83359 230.06279,-55.03019 16.30617,4.20768 29.51414,9.14723 45.43721,16.99271 18.02442,8.88084 31.7787,17.78993 46.75,30.28147 6.27627,5.23671 18.9639,17.6639 24.73082,24.22316 42.41751,48.24545 62.48449,114.18393 54.26354,178.30564 -5.27346,41.13195 -21.97178,79.63675 -47.62832,109.82658 -8.60324,10.12335 -23.46751,24.61452 -25.25409,24.6202 -0.41958,10e-4 -0.89767,0.38071 -1.06241,0.84305 -0.37885,1.06317 -6.70801,6.05629 -13.75898,10.85455 -27.22533,18.527118 -57.29496,29.687543 -91.29056,33.882728 -9.08245,1.12081 -34.75203,1.275325 -43.25,0.260335 -42.95337,-5.13029 -79.35325,-21.62519 -108.46245,-49.150633 -44.92489,-42.48065 -64.21543,-105.92721 -50.45379,-165.94245 6.83898,-29.82516 21.40355,-55.91777 42.99558,-77.02713 11.99062,-11.72258 23.34078,-19.79749 37.92066,-26.97812 16.57897,-8.16518 31.53322,-12.60645 49.79299,-14.78805 8.75516,-1.04602 24.57633,-1.04605 33.37699,-6e-5 31.24989,3.71418 58.50619,16.68908 79.65505,37.91845 19.89897,19.97471 31.94658,44.99086 35.45727,73.62491 0.88115,7.18684 0.75483,21.25549 -0.25967,28.92051 -3.3343,25.19222 -13.90258,46.619 -31.38144,63.62467 -13.10552,12.75072 -27.52292,20.78399 -45.14119,25.15233 -14.0431,3.48189 -32.20826,3.50238 -45.38458,0.0512 -23.47447,-6.14854 -42.10993,-20.97474 -51.84663,-41.24868 -4.65217,-9.68684 -6.45222,-17.1746 -6.86336,-28.54984 -0.22997,-6.36287 -0.10956,-9.13461 0.57459,-13.22612 3.89756,-23.30911 19.40201,-40.52572 40.31085,-44.76239 5.03436,-1.02009 15.56563,-0.74221 20.20913,0.53325 10.82898,2.97446 18.99442,10.90541 21.24369,20.63362 1.05621,4.56821 -0.75216,11.55045 -4.33785,16.74866 -2.70915,3.92749 -6.87962,4.98349 -10.35827,2.62282 -2.10655,-1.42954 -2.79757,-1.55825 -2.79757,-0.52108 0,0.40091 1.02219,1.32797 2.27153,2.06013 2.97059,1.74088 6.76214,1.56669 9.38123,-0.43099 4.91338,-3.74761 8.55748,-13.87154 7.34964,-20.41856 -0.27289,-1.47923 -1.39268,-4.51388 -2.48841,-6.74368 -3.59742,-7.32069 -11.06651,-12.98616 -20.51399,-15.5603 -5.06802,-1.38087 -17.8423,-1.22185 -23.45387,0.29197 -8.93682,2.41087 -15.58317,6.42485 -22.79613,13.76744 -11.59885,11.80729 -16.82804,26.61411 -16.08829,45.55507 0.7469,19.12381 7.95869,35.41546 21.81365,49.27765 11.54407,11.5501 25.88069,19.08424 42.83535,22.5107 7.65475,1.54699 23.12702,1.91317 31.20432,0.73851 31.87692,-4.6358 58.36029,-22.88399 74.41746,-51.27686 6.15489,-10.88329 10.28469,-22.81861 12.88907,-37.25 1.41806,-7.85774 1.31173,-30.22953 -0.18425,-38.76506 -2.43785,-13.90956 -5.45559,-23.18486 -11.62644,-35.73494 -6.28278,-12.77772 -13.09757,-22.31041 -23.26087,-32.53789 -20.19254,-20.32003 -45.223,-32.9144 -75.03773,-37.75611 -8.26469,-1.34213 -27.31511,-1.8551 -36.57185,-0.98477 -67.70366,6.36555 -122.10968,56.52861 -135.87528,125.27877 -3.99948,19.97473 -4.278,42.88872 -0.77187,63.5 4.50858,26.50428 15.30149,52.33659 30.9177,74 10.28093,14.26211 25.90746,29.74166 40.74505,40.361823 25.6988,18.394185 55.04875,29.535385 88.84398,33.725045 10.17788,1.26177 34.70358,1.2575 45,-0.0079 37.93634,-4.66203 71.66277,-18.17757 100.81183,-40.399358 4.40639,-3.35921 5.40291,-3.92294 5.93646,-3.35826 3.15442,3.33844 62.25943,79.187273 62.07698,79.662728 -0.36967,0.96336 -13.66592,10.802635 -22.37417,16.55698 -42.23869,27.91104 -91.17878,44.902589 -142.4511,49.457839 -8.45298,0.751 -33.0799,1.32835 -40.25,0.9436 z"
       id="path904"
       inkscape:connector-curvature="0"
       transform="scale(0.26458333)" />
  </g>
</svg>
